<?xml version="1.0" encoding="utf-8"?><svg viewBox="0 0 108 48" xmlns="http://www.w3.org/2000/svg" xmlns:xlink="http://www.w3.org/1999/xlink"><style>:root>svg{display:none}:root>svg:target{display:block}</style><svg fill="none" viewBox="0 0 48 48" id="arrow" xmlns="http://www.w3.org/2000/svg"><path fill-rule="evenodd" clip-rule="evenodd" d="M24 46c12.15 0 22-9.85 22-22S36.15 2 24 2 2 11.85 2 24s9.85 22 22 22zm0 2c13.255 0 24-10.745 24-24S37.255 0 24 0 0 10.745 0 24s10.745 24 24 24z" fill="currentColor"/><path fill-rule="evenodd" clip-rule="evenodd" d="M13.528 19.733a1.364 1.364 0 011.928.069l8.154 8.761 8.408-8.776a1.364 1.364 0 111.97 1.887l-8.61 8.984a2.455 2.455 0 01-3.568-.026l-8.35-8.972a1.364 1.364 0 01.068-1.927z" fill="currentColor"/></svg><svg fill="none" viewBox="0 0 24 44" id="logo-icon" xmlns="http://www.w3.org/2000/svg"><mask id="ba" style="mask-type:alpha" maskUnits="userSpaceOnUse" x="0" y="0" width="24" height="44"><path d="M21.449 23.513c1.098 0 1.988-.88 1.988-1.967 0-1.087-.89-1.968-1.988-1.968-1.098 0-1.988.881-1.988 1.968 0 1.086.89 1.967 1.988 1.967zM21.449 7.607c1.098 0 1.988-.88 1.988-1.968 0-1.086-.89-1.967-1.988-1.967-1.098 0-1.988.88-1.988 1.967 0 1.087.89 1.968 1.988 1.968zM1.988 35.341c1.098 0 1.988-.88 1.988-1.967 0-1.087-.89-1.968-1.988-1.968A1.978 1.978 0 000 33.374c0 1.087.89 1.967 1.988 1.967z" fill="#D18787"/><path d="M.14 43.497v-2.08c6.17 0 11.059-1.773 14.521-5.273 5.845-5.899 5.736-14.842 5.736-14.929l2.102-.043c.009.4.14 9.881-6.324 16.418C12.3 41.508 6.903 43.497.141 43.497zM2.941 24.412c1.098 0 1.988-.881 1.988-1.968 0-1.086-.89-1.967-1.988-1.967-1.098 0-1.988.88-1.988 1.967 0 1.087.89 1.968 1.988 1.968z" fill="#D18787"/><path d="M23.434.5v2.085c-5.793.148-10.405 1.924-13.718 5.273-5.85 5.916-5.722 14.824-5.722 14.915l-2.102.044c-.009-.4-.14-9.882 6.324-16.419C11.932 2.637 17.049.656 23.434.5zM23.43 9.203v2.09c-2.58.299-10.048 1.889-10.048 10.245 0 6.186-3.182 9.434-5.854 11.072-2.853 1.75-5.688 2.041-5.806 2.054l-.206-2.072c.395-.039 9.764-1.107 9.764-11.053 0-6.242 3.558-9.291 6.547-10.755 2.238-1.094 4.458-1.46 5.604-1.58z" fill="#D18787"/><path d="M19.998 14.78a11.023 11.023 0 013.436-.952v2.094c-1.772.234-5.73 1.298-5.73 6.076 0 8.122-4.617 16.796-17.571 16.796v-2.08c14.35 0 15.468-11.263 15.468-14.716 0-4.24 2.392-6.263 4.397-7.219zM.14 30.102v-2.08c4.46 0 6.561-2.22 6.614-6.98.052-4.648 1.852-7.732 1.926-7.862 4.516-7.844 13.937-8.552 14.332-8.578l.14 2.076c-.087.004-8.701.677-12.655 7.544-.022.035-1.602 2.776-1.646 6.841-.026 2.454-.575 4.448-1.628 5.929-1.465 2.063-3.848 3.11-7.082 3.11z" fill="#D18787"/></mask><g mask="url(#ba)"><path fill="url(#bpaint0_linear_207_451)" d="M0 .5h23.845v43.317H0z"/></g><defs><linearGradient id="bpaint0_linear_207_451" x1="23.845" y1=".5" x2=".094" y2="43.869" gradientUnits="userSpaceOnUse"><stop stop-color="#05B29E"/><stop offset="1" stop-color="#716DFC"/></linearGradient></defs></svg><svg fill="none" viewBox="0 0 108 21" id="stars" xmlns="http://www.w3.org/2000/svg"><g clip-path="url(#cclip0_189_35)"><path d="M20.667.5h-20v20h20V.5zM42.334.5h-20v20h20V.5zM64 .5H44v20h20V.5zM85.667.5h-20v20h20V.5zM107.333.5h-20v20h20V.5z" fill="#219653"/><path d="M10.666 13.979l3.042-.77 1.271 3.916-4.313-3.146zm7-5.063h-5.354l-1.646-5.041-1.645 5.041H3.666L8 12.041l-1.646 5.042 4.333-3.125 2.667-1.917 4.313-3.125zM32.333 13.979l3.042-.77 1.27 3.916-4.312-3.146zm7-5.063H33.98l-1.646-5.041-1.646 5.041h-5.354l4.334 3.125-1.646 5.042 4.333-3.125 2.667-1.917 4.312-3.125zM54 13.979l3.041-.77 1.271 3.916L54 13.979zm7-5.063h-5.354L54 3.875l-1.646 5.041H47l4.333 3.125-1.646 5.042 4.334-3.125 2.666-1.917L61 8.916zM75.666 13.979l3.042-.77 1.271 3.916-4.313-3.146zm7-5.063h-5.354l-1.645-5.041-1.646 5.041h-5.355L73 12.041l-1.646 5.042 4.333-3.125 2.667-1.917 4.313-3.125zM97.333 13.979l3.042-.77 1.271 3.916-4.313-3.146zm7-5.063h-5.354l-1.646-5.041-1.646 5.041h-5.354l4.334 3.125-1.646 5.042 4.333-3.125 2.667-1.917 4.312-3.125z" fill="#fff"/></g><defs><clipPath id="cclip0_189_35"><path fill="#fff" transform="translate(.667 .5)" d="M0 0h106.667v20H0z"/></clipPath></defs></svg><svg fill="none" viewBox="0 0 15 15" id="trustpilot-star" xmlns="http://www.w3.org/2000/svg"><path d="M7.333 10.98l3.042-.772 1.271 3.917-4.313-3.146zm7-5.063H8.98L7.334.875 5.688 5.917H.333l4.334 3.125-1.646 5.041 4.333-3.125 2.667-1.916 4.313-3.125z" fill="#219653"/></svg></svg>