<svg width="48" height="48" viewBox="0 0 48 48" fill="none" xmlns="http://www.w3.org/2000/svg">
<path fill-rule="evenodd" clip-rule="evenodd" d="M24 46C36.1503 46 46 36.1503 46 24C46 11.8497 36.1503 2 24 2C11.8497 2 2 11.8497 2 24C2 36.1503 11.8497 46 24 46ZM24 48C37.2548 48 48 37.2548 48 24C48 10.7452 37.2548 0 24 0C10.7452 0 0 10.7452 0 24C0 37.2548 10.7452 48 24 48Z" fill="currentColor"/>
<path fill-rule="evenodd" clip-rule="evenodd" d="M13.5284 19.7326C14.0797 19.2195 14.9425 19.2505 15.4556 19.8018L23.6095 28.563L32.0183 19.7874C32.5393 19.2436 33.4025 19.2252 33.9463 19.7462C34.4901 20.2673 34.5085 21.1305 33.9874 21.6743L25.3788 30.6584C24.4028 31.677 22.7709 31.6651 21.8098 30.6324L13.4592 21.6598C12.9461 21.1086 12.9771 20.2457 13.5284 19.7326Z" fill="currentColor"/>
</svg>
