<svg width="108" height="21" viewBox="0 0 108 21" fill="none" xmlns="http://www.w3.org/2000/svg">
<g id="stars-5 1" clip-path="url(#clip0_189_35)">
<g id="Trustpilot ratings 5star RGB">
<g id="Group">
<path id="Rectangle path" d="M20.6667 0.5H0.666748V20.5H20.6667V0.5Z" fill="#219653"/>
<path id="Rectangle path_2" d="M42.3335 0.5H22.3335V20.5H42.3335V0.5Z" fill="#219653"/>
<path id="Rectangle path_3" d="M64 0.5H44V20.5H64V0.5Z" fill="#219653"/>
<path id="Rectangle path_4" d="M85.6667 0.5H65.6667V20.5H85.6667V0.5Z" fill="#219653"/>
<path id="Rectangle path_5" d="M107.333 0.5H87.3335V20.5H107.333V0.5Z" fill="#219653"/>
<path id="Shape" d="M10.6665 13.9789L13.7082 13.2081L14.979 17.1248L10.6665 13.9789ZM17.6665 8.91642H12.3123L10.6665 3.87476L9.02067 8.91642H3.6665L7.99984 12.0414L6.354 17.0831L10.6873 13.9581L13.354 12.0414L17.6665 8.91642Z" fill="white"/>
<path id="Shape_2" d="M32.3333 13.9789L35.3749 13.2081L36.6457 17.1248L32.3333 13.9789ZM39.3332 8.91642H33.9791L32.3333 3.87476L30.6874 8.91642H25.3333L29.6666 12.0414L28.0208 17.0831L32.3541 13.9581L35.0207 12.0414L39.3332 8.91642Z" fill="white"/>
<path id="Shape_3" d="M53.9998 13.9789L57.0414 13.2081L58.3123 17.1248L53.9998 13.9789ZM60.9998 8.91642H55.6456L53.9998 3.87476L52.3539 8.91642H46.9998L51.3331 12.0414L49.6873 17.0831L54.0206 13.9581L56.6873 12.0414L60.9998 8.91642Z" fill="white"/>
<path id="Shape_4" d="M75.6665 13.9789L78.7082 13.2081L79.979 17.1248L75.6665 13.9789ZM82.6665 8.91642H77.3123L75.6665 3.87476L74.0207 8.91642H68.6665L72.9998 12.0414L71.354 17.0831L75.6873 13.9581L78.354 12.0414L82.6665 8.91642Z" fill="white"/>
<path id="Shape_5" d="M97.3333 13.9789L100.375 13.2081L101.646 17.1248L97.3333 13.9789ZM104.333 8.91642H98.9791L97.3333 3.87476L95.6874 8.91642H90.3333L94.6666 12.0414L93.0208 17.0831L97.3541 13.9581L100.021 12.0414L104.333 8.91642Z" fill="white"/>
</g>
</g>
</g>
<defs>
<clipPath id="clip0_189_35">
<rect width="106.667" height="20" fill="white" transform="translate(0.666748 0.5)"/>
</clipPath>
</defs>
</svg>
