<svg width="49" height="48" viewBox="0 0 49 48" fill="none" xmlns="http://www.w3.org/2000/svg">
<path d="M36.3787 6C40.9467 6 44.6647 9.68403 44.6647 14.2103L44.6667 19.5649C44.6667 19.9573 44.5087 20.3378 44.2287 20.6152C43.9467 20.8946 43.5667 21.0512 43.1667 21.0512C41.5247 21.0512 40.1887 22.375 40.1887 24.002C40.1887 25.629 41.5247 26.9528 43.1667 26.9528C43.9947 26.9528 44.6667 27.6186 44.6667 28.4391V33.7917C44.6667 38.318 40.9507 42 36.3827 42H12.9527C8.38475 42 4.66675 38.318 4.66675 33.7917V28.4391C4.66675 27.6186 5.33875 26.9528 6.16675 26.9528C7.81075 26.9528 9.14675 25.629 9.14675 24.002C9.14675 22.4166 7.86475 21.2236 6.16675 21.2236C5.76875 21.2236 5.38875 21.067 5.10675 20.7876C4.82475 20.5082 4.66675 20.1297 4.66675 19.7373L4.67075 14.2103C4.67075 9.68403 8.38675 6 12.9547 6H36.3787ZM24.6707 16.3069C24.1027 16.3069 23.5947 16.6201 23.3407 17.1234L21.8827 20.0504L18.6307 20.5201C18.0687 20.5994 17.6087 20.9799 17.4307 21.5149C17.2547 22.05 17.3967 22.6286 17.8047 23.021L20.1627 25.296L19.6067 28.5124C19.5107 29.0673 19.7367 29.6182 20.1967 29.9491C20.4567 30.1334 20.7587 30.2286 21.0647 30.2286C21.2987 30.2286 21.5347 30.1711 21.7507 30.0581L24.6667 28.5401L27.5767 30.0542C28.0807 30.3217 28.6787 30.2801 29.1367 29.9472C29.5987 29.6182 29.8247 29.0673 29.7287 28.5124L29.1707 25.296L31.5287 23.021C31.9387 22.6286 32.0807 22.05 31.9027 21.5149C31.7267 20.9799 31.2667 20.5994 30.7107 20.5221L27.4527 20.0504L25.9947 17.1254C25.7447 16.622 25.2367 16.3089 24.6707 16.3069Z" fill="#1F1F1F"/>
</svg>
