<svg width="48" height="48" viewBox="0 0 48 48" fill="none" xmlns="http://www.w3.org/2000/svg">
<path d="M33.3306 4.02043C36.2076 3.84061 39.0447 4.83958 41.1825 6.79755C43.1405 8.93534 44.1395 11.7724 43.9797 14.6694V33.3301C44.1595 36.2271 43.1405 39.0642 41.2025 41.202C39.0647 43.1599 36.2076 44.1589 33.3306 43.9791H14.6697C11.7727 44.1589 8.93563 43.1599 6.79782 41.202C4.83983 39.0642 3.84086 36.2271 4.02067 33.3301V14.6694C3.84086 11.7724 4.83983 8.93534 6.79782 6.79755C8.93563 4.83958 11.7727 3.84061 14.6697 4.02043H33.3306ZM32.8111 13.151C31.5724 11.9123 29.5744 11.9123 28.3357 13.151L26.9971 14.5096C26.7973 14.7094 26.7973 15.049 26.9971 15.2488C26.9971 15.2488 27.0363 15.2878 27.1061 15.3572L27.5975 15.8459C27.8818 16.1288 28.2366 16.482 28.5929 16.8372L29.8011 18.0448C30.0532 18.298 30.2204 18.4677 30.2338 18.4855C30.4535 18.7252 30.5934 19.0449 30.5934 19.4045C30.5934 20.1238 30.014 20.7231 29.2747 20.7231C28.9351 20.7231 28.6154 20.5833 28.3956 20.3635L25.0591 17.0469C24.8992 16.8871 24.6195 16.8871 24.4597 17.0469L14.9295 26.5771C14.2701 27.2364 13.8905 28.1155 13.8706 29.0545L13.7507 33.7896C13.7507 34.0494 13.8306 34.2891 14.0104 34.4689C14.1902 34.6487 14.43 34.7486 14.6897 34.7486H19.3849C20.3439 34.7486 21.263 34.369 21.9623 33.6897L35.4084 20.2037C36.6272 18.965 36.6272 16.967 35.4084 15.7483L32.8111 13.151Z" fill="#1F1F1F"/>
</svg>
