<svg width="49" height="48" viewBox="0 0 49 48" fill="none" xmlns="http://www.w3.org/2000/svg">
<path d="M33.0137 3.99951C39.7937 3.99951 44.3337 8.75951 44.3337 15.8395V32.1815C44.3337 39.2395 39.7937 43.9995 33.0137 43.9995H15.6737C8.89374 43.9995 4.33374 39.2395 4.33374 32.1815V15.8395C4.33374 8.75951 8.89374 3.99951 15.6737 3.99951H33.0137ZM32.6937 17.9995C32.0137 17.3195 30.8937 17.3195 30.2137 17.9995L21.9537 26.2595L18.4537 22.7595C17.7737 22.0795 16.6537 22.0795 15.9737 22.7595C15.2937 23.4395 15.2937 24.5395 15.9737 25.2395L20.7337 29.9795C21.0737 30.3195 21.5137 30.4795 21.9537 30.4795C22.4137 30.4795 22.8537 30.3195 23.1937 29.9795L32.6937 20.4795C33.3737 19.7995 33.3737 18.6995 32.6937 17.9995Z" fill="#1F1F1F"/>
</svg>
